HIERARCHY
ROOT Hips
{
	OFFSET 0.000000 0.000000 0.000000
	CHANNELS 6 Xposition Yposition Zposition Zrotation Yrotation Xrotation 
	JOINT LHipJoint
	{
		OFFSET 0.000000 0.000000 0.000000
		CHANNELS 3 Zrotation Yrotation Xrotation
		JOINT LeftUpLeg
		{
			OFFSET 1.363060 -1.794630 0.839290
			CHANNELS 3 Zrotation Yrotation Xrotation
			JOINT LeftLeg
			{
				OFFSET 2.448110 -6.726130 0.000000
				CHANNELS 3 Zrotation Yrotation Xrotation
				JOINT LeftFoot
				{
					OFFSET 2.562200 -7.039590 0.000000
					CHANNELS 3 Zrotation Yrotation Xrotation
					JOINT LeftToeBase
					{
						OFFSET 0.157640 -0.433110 2.322550
						CHANNELS 3 Zrotation Yrotation Xrotation
						End Site
						{
							OFFSET 0.000000 0.000000 0.000000
						}
					}
				}
			}
		}
	}
	JOINT RHipJoint
	{
		OFFSET 0.000000 0.000000 0.000000
		CHANNELS 3 Zrotation Yrotation Xrotation
		JOINT RightUpLeg
		{
			OFFSET -1.305520 -1.794630 0.839290
			CHANNELS 3 Zrotation Yrotation Xrotation
			JOINT RightLeg
			{
				OFFSET -2.542530 -6.985550 0.000000
				CHANNELS 3 Zrotation Yrotation Xrotation
				JOINT RightFoot
				{
					OFFSET -2.568260 -7.056230 0.000000
					CHANNELS 3 Zrotation Yrotation Xrotation
					JOINT RightToeBase
					{
						OFFSET -0.164730 -0.452590 2.363150
						CHANNELS 3 Zrotation Yrotation Xrotation
						End Site
						{
							OFFSET 0.000000 0.000000 0.000000
						}
					}
				}
			}
		}
	}
	JOINT LowerBack
	{
		OFFSET 0.000000 0.000000 0.000000
		CHANNELS 3 Zrotation Yrotation Xrotation
		JOINT Spine
		{
			OFFSET 0.028270 2.035590 -0.193380
			CHANNELS 3 Zrotation Yrotation Xrotation
			JOINT Spine1
			{
				OFFSET 0.056720 2.048850 -0.042750
				CHANNELS 3 Zrotation Yrotation Xrotation
				JOINT Neck
				{
					OFFSET 0.000000 0.000000 0.000000
					CHANNELS 3 Zrotation Yrotation Xrotation
					JOINT Neck1
					{
						OFFSET -0.054170 1.746240 0.172020
						CHANNELS 3 Zrotation Yrotation Xrotation
						JOINT Head
						{
							OFFSET 0.104070 1.761360 -0.123970
							CHANNELS 3 Zrotation Yrotation Xrotation
							End Site
							{
								OFFSET 0.000000 0.000000 0.000000
							}
						}
					}
				}
				JOINT LeftShoulder
				{
					OFFSET 0.000000 0.000000 0.000000
					CHANNELS 3 Zrotation Yrotation Xrotation
					JOINT LeftArm
					{
						OFFSET 3.362410 1.200890 -0.311210
						CHANNELS 3 Zrotation Yrotation Xrotation
						JOINT LeftForeArm
						{
							OFFSET 4.983000 -0.000000 -0.000000
							CHANNELS 3 Zrotation Yrotation Xrotation
							JOINT LeftHand
							{
								OFFSET 3.483560 -0.000000 -0.000000
								CHANNELS 3 Zrotation Yrotation Xrotation
								JOINT LeftFingerBase
								{
									OFFSET 0.000000 0.000000 0.000000
									CHANNELS 3 Zrotation Yrotation Xrotation
									JOINT LeftHandIndex1
									{
										OFFSET 0.715260 -0.000000 -0.000000
										CHANNELS 3 Zrotation Yrotation Xrotation
										End Site
										{
											OFFSET 0.000000 0.000000 0.000000
										}
									}
								}
								JOINT LThumb
								{
									OFFSET 0.000000 0.000000 0.000000
									CHANNELS 3 Zrotation Yrotation Xrotation
									End Site
									{
										OFFSET 0.000000 0.000000 0.000000
									}
								}
							}
						}
					}
				}
				JOINT RightShoulder
				{
					OFFSET 0.000000 0.000000 0.000000
					CHANNELS 3 Zrotation Yrotation Xrotation
					JOINT RightArm
					{
						OFFSET -3.136600 1.374050 -0.404650
						CHANNELS 3 Zrotation Yrotation Xrotation
						JOINT RightForeArm
						{
							OFFSET -5.241900 -0.000000 -0.000000
							CHANNELS 3 Zrotation Yrotation Xrotation
							JOINT RightHand
							{
								OFFSET -3.444170 -0.000000 -0.000000
								CHANNELS 3 Zrotation Yrotation Xrotation
								JOINT RightFingerBase
								{
									OFFSET 0.000000 0.000000 0.000000
									CHANNELS 3 Zrotation Yrotation Xrotation
									JOINT RightHandIndex1
									{
										OFFSET -0.622530 -0.000000 -0.000000
										CHANNELS 3 Zrotation Yrotation Xrotation
										End Site
										{
											OFFSET 0.000000 0.000000 0.000000
										}
									}
								}
								JOINT RThumb
								{
									OFFSET 0.000000 0.000000 0.000000
									CHANNELS 3 Zrotation Yrotation Xrotation
									End Site
									{
										OFFSET 0.000000 0.000000 0.000000
									}
								}
							}
						}
					}
				}
			}
		}
	}
}
MOTION
Frames: 4
Frame Time: 0.008333
-39.020964 17.193827 -18.397938 0.983404 56.973511 8.944604 1.616555 -0.524897 -2.151058 -15.848727 17.083963 -34.512671 9.782566 19.060918 60.719747 1.468503 -3.587196 1.184682 0.352100 3.812200 10.548900 -0.259315 -0.791808 1.148202 4.493006 -1.921644 -8.358386 -1.225364 -9.864747 29.794575 0.552424 -5.683510 -11.267887 -1.715200 8.245700 -23.462900 5.107316 -3.728855 18.624940 1.245393 -2.811536 -2.187229 2.792396 -1.710350 4.346614 -6.225775 -4.959833 -9.144695 1.944793 -5.225667 2.807076 3.829500 -1.149000 -2.258800 2.050116 1.278985 1.672075 -89.799673 6.975904 50.492646 88.674371 -61.031758 -55.700683 -1.027817 -0.780937 -34.013208 9.919725 14.069396 2.761000 -7.125000 0.000000 0.000000 -14.841600 43.819100 0.442800 -2.851596 0.420814 1.648721 73.184091 -2.799803 59.426760 -90.158104 60.307001 -61.094356 -0.062760 -0.334097 -18.997574 -21.846389 21.206799 -8.308000 7.125000 0.000000 0.000000 4.446500 -7.011800 3.882500 
-38.870777 17.209050 -18.349542 0.638407 56.848143 8.654102 1.803352 -0.465489 -2.277886 -14.791996 17.393169 -35.348658 9.501491 18.901064 59.596839 1.116426 -2.081312 1.258981 0.008300 -0.588800 -1.618000 -0.184518 -0.920551 1.374413 4.558198 -1.948824 -7.509695 -0.992895 -9.449097 28.690714 1.110558 -6.984924 -11.051159 -1.901600 8.658000 -24.731300 4.538597 -3.276783 19.041906 1.205227 -2.268963 -2.215095 3.171461 -1.472452 3.794352 -6.750651 -5.107280 -8.578846 2.153476 -5.491496 2.858303 4.146400 -1.246600 -2.270900 2.031690 1.131820 1.655583 -89.334786 7.776883 48.873129 87.447437 -61.080952 -54.960588 -0.858000 -0.881378 -35.387839 7.816823 13.424027 2.140100 -7.125000 0.000000 0.000000 -16.617100 43.120400 0.794300 -2.930713 0.539884 1.671822 74.124657 -2.807592 60.337800 -88.203534 60.253619 -59.316848 -0.067735 -0.355975 -17.833075 -21.926832 21.354129 -8.402200 7.125000 0.000000 0.000000 4.414500 -6.818400 3.871000 
-38.719795 17.198371 -18.301486 -0.031810 56.799384 8.223567 1.988190 -0.385321 -2.392807 -13.413719 17.501110 -36.018504 9.034259 18.638205 57.947169 1.165782 -2.084837 1.828336 0.057500 -1.547700 -4.257200 -0.111054 -0.985438 1.554278 4.833897 -2.087119 -6.857404 -0.801090 -9.106051 27.795653 1.342081 -7.529284 -11.045310 -1.765200 8.358900 -23.809700 3.712221 -3.039727 19.145130 1.256348 -1.941987 -2.216807 4.658624 -1.435967 3.401429 -8.474115 -5.072655 -7.701608 2.591577 -5.523708 2.737954 4.928000 -1.102500 -2.603300 2.007117 1.023532 1.741533 -89.782512 8.411916 46.846581 86.312207 -61.142739 -54.054153 -0.821581 -0.852345 -36.239165 7.063671 12.693158 1.844100 -7.125000 0.000000 0.000000 -17.084500 42.321800 1.166200 -2.972231 0.543415 1.766535 73.915716 -2.597117 61.926699 -86.469026 60.236517 -57.900593 -0.062637 -0.297798 -16.897455 -22.028877 21.484652 -8.482200 7.125000 0.000000 0.000000 4.339800 -6.723000 3.813200 
-38.563018 17.182580 -18.254908 -0.531283 56.917685 8.183407 2.219346 -0.381764 -2.595772 -12.181348 17.654196 -36.815904 8.476436 18.293181 56.037221 1.335741 -2.518183 2.793382 0.030800 -1.132900 -3.114600 -0.023495 -1.078438 1.717154 5.039303 -2.306525 -6.381405 -0.594993 -8.757521 26.806357 1.519131 -7.953109 -11.113404 -1.517400 7.778800 -22.044100 3.615642 -2.283731 18.805247 1.139756 -1.107582 -2.193569 4.104515 -0.941393 3.288786 -8.340806 -5.602886 -7.058412 3.008678 -6.409691 2.591691 5.363000 -1.445100 -2.832900 1.857145 1.063464 1.767912 -87.848867 8.989896 46.859955 86.070094 -61.180388 -54.303486 -0.706712 -0.921260 -37.391332 7.036322 12.198753 1.773000 -7.125000 0.000000 0.000000 -17.031800 41.938800 1.328800 -3.111398 0.576764 1.849110 75.785415 -2.269812 61.846852 -84.507970 60.164260 -56.010939 -0.053590 -0.384192 -15.855366 -22.243364 21.351013 -8.555500 7.125000 0.000000 0.000000 4.207100 -6.727800 3.695500 
